Coordinates
version=1
nRows=4
nColumns=63
inDegrees=yes

Units are S.I. units (second, meters, Newtons, ...)
If the header above contains a line with 'inDegrees', this indicates whether rotational values are in degrees (yes) or radians (no).

endheader
time	pelvis_tilt	pelvis_list	pelvis_rotation	pelvis_tx	pelvis_ty	pelvis_tz	hip_flexion_r	hip_adduction_r	hip_rotation_r	knee_angle_r	knee_angle_r_beta	ankle_angle_r	subtalar_angle_r	mtp_angle_r	hip_flexion_l	hip_adduction_l	hip_rotation_l	knee_angle_l	knee_angle_l_beta	ankle_angle_l	subtalar_angle_l	mtp_angle_l	L5_S1_Flex_Ext	L5_S1_Lat_Bending	L5_S1_axial_rotation	L4_L5_Flex_Ext	L4_L5_Lat_Bending	L4_L5_axial_rotation	L3_L4_Flex_Ext	L3_L4_Lat_Bending	L3_L4_axial_rotation	L2_L3_Flex_Ext	L2_L3_Lat_Bending	L2_L3_axial_rotation	L1_L2_Flex_Ext	L1_L2_Lat_Bending	L1_L2_axial_rotation	L1_T12_Flex_Ext	L1_T12_Lat_Bending	L1_T12_axial_rotation	Abs_r3	Abs_r2	Abs_r1	Abs_t1	Abs_t2	neck_flexion	neck_bending	neck_rotation	arm_flex_r	arm_add_r	arm_rot_r	elbow_flex_r	pro_sup_r	wrist_flex_r	wrist_dev_r	arm_flex_l	arm_add_l	arm_rot_l	elbow_flex_l	pro_sup_l	wrist_flex_l	wrist_dev_l
      2.81250000	     -9.51564750	    -16.24005814	     74.92254738	      0.19417738	      0.68155395	      0.78434164	     39.85560491	     -0.86480395	      3.11530962	     41.96359800	      0.73240295	     43.88672162	     -3.79529874	      0.00000000	     41.27494020	      2.43269171	      1.22771401	     44.74357909	      0.78092277	     47.35687079	    -17.45706218	      0.00000000	      0.02538240	     -0.05661555	     -1.72232779	      0.04713765	     -0.07529869	     -1.82997328	      0.04170074	     -0.13765506	     -1.82997328	      0.02900954	     -0.13765506	     -1.50703682	      0.02357009	     -0.11545044	     -1.39939133	      0.01450350	     -0.08769749	     -1.29174584	      0.18130392	     -0.64044646	     -9.57907047	      0.00000000	      0.00000000	     28.12865876	      6.04073549	     10.88083335	      5.21233082	    -13.59098328	     44.78331923	     28.30425382	     76.39411324	     -8.52796776	     -5.06411138	     15.53663182	     -9.60292388	    181.44145823	      1.60366800	      8.33078565	     -6.61929660	     -3.77024677
      2.83333333	     -8.64260516	    -16.38461806	     75.80479018	      0.19325366	      0.68467966	      0.78291864	     38.88485297	     -0.44435799	      2.45666794	     40.66454970	      0.70973028	     43.25158791	     -4.05179381	      0.00000000	     40.84098967	      2.14417492	      2.28027816	     44.10519873	      0.76978094	     46.89659355	    -17.70846905	      0.00000000	      0.05701421	      0.06762144	     -1.80320168	      0.10588108	      0.08993651	     -1.91590178	      0.09366864	      0.16441477	     -1.91590178	      0.06516154	      0.16441477	     -1.57780147	      0.05294339	      0.13789364	     -1.46510136	      0.03257792	      0.10474561	     -1.35240126	      0.40724677	      0.76494725	    -10.02886678	      0.00000000	      0.00000000	     28.12732603	      5.56712919	     11.70735072	      4.74346687	    -14.17662936	     44.30362323	     28.37422347	     76.46092765	     -8.24117111	     -4.97442073	     15.22532416	     -8.85758802	    181.76718106	      1.65002701	      8.11311225	     -7.05469188	     -3.37649124
      2.85416667	     -8.42993501	    -16.47532015	     76.15242282	      0.19316512	      0.68747831	      0.78236935	     38.46450658	     -0.36229142	      2.33977987	     39.98332662	      0.69784070	     42.65805949	     -4.01164318	      0.00000000	     40.46633428	      2.04209815	      2.54882775	     43.23364391	      0.75456943	     46.31813395	    -17.72230203	      0.00000000	      0.10871722	      0.10847132	     -1.81741559	      0.20189876	      0.14426685	     -1.93100407	      0.17861153	      0.26373716	     -1.93100407	      0.12425292	      0.26373716	     -1.59023864	      0.10095481	      0.22119471	     -1.47665017	      0.06212102	      0.16802207	     -1.36306170	      0.77655626	      1.22704924	    -10.10792031	      0.00000000	      0.00000000	     28.10353258	      5.23691993	     12.02729461	      4.49128615	    -14.34344772	     44.35221818	     28.13536475	     76.51024103	     -8.19535949	     -4.96534725	     14.95168850	     -8.49751065	    181.91426799	      1.62662597	      8.16502562	     -7.15470884	     -3.29782965
      2.87500000	     -7.32856437	    -16.41841090	     77.72876903	      0.19178401	      0.69054235	      0.78146796	     37.26055881	      0.02533255	      1.43688725	     38.68288848	      0.67514377	     42.14284338	     -4.79394506	      0.00000000	     40.13639004	      2.01331811	      4.44057635	     42.93250490	      0.74931357	     46.01369837	    -18.12386778	      0.00000000	      0.09258558	      0.24277262	     -2.07074157	      0.17194068	      0.32288758	     -2.20016292	      0.15210885	      0.59027735	     -2.20016292	      0.10581606	      0.59027735	     -1.81189888	      0.08597497	      0.49506193	     -1.68247753	      0.05290340	      0.37605479	     -1.55305618	      0.66132955	      2.74629243	    -11.51684342	      0.00000000	      0.00000000	     28.05870733	      4.56226909	     13.07172703	      4.83255110	    -14.70275388	     45.12746313	     27.62374365	     77.05436433	     -7.91419896	     -5.50051675	     14.69278432	     -7.88076231	    182.74535713	      1.64553079	      8.42251308	     -7.78524515	     -2.28133434
